<svg class="test-remove-student-button" width="2em" height="2em" version="1.1" xmlns="http://www.w3.org/2000/svg" xmlns:xlink="http://www.w3.org/1999/xlink" x="0px" y="0px"
	 viewBox="0 0 30 30" enable-background="new 0 0 30 30" xml:space="preserve">
<g id="Layer_5">
	<path fill="#F90093" d="M14.8,1.4c-7.4,0-13.4,6-13.4,13.4s6,13.4,13.4,13.4s13.4-6,13.4-13.4S22.2,1.4,14.8,1.4z M20.9,17.3
		c1,0.9,1,2.6,0,3.7c-0.9,1-2.6,1-3.7,0L15,18.7l-2.3,2.3c-0.9,1-2.6,1-3.7,0c-1-0.9-1-2.6,0-3.7l2.3-2.3l-2.3-2.3
		c-1-0.9-1-2.6,0-3.7c0.9-1,2.6-1,3.7,0l2.3,2.3l2.3-2.3c0.9-1,2.6-1,3.7,0c1,0.9,1,2.6,0,3.7L18.7,15L20.9,17.3z"/>
	<!-- <path fill="#A1A1A1" d="M14.8,28.7c-7.7,0-13.9-6.2-13.9-13.9S7.1,0.9,14.8,0.9s13.9,6.2,13.9,13.9S22.5,28.7,14.8,28.7z
		 M14.8,1.9C7.7,1.9,1.9,7.7,1.9,14.8c0,7.1,5.8,12.9,12.9,12.9c7.1,0,12.9-5.8,12.9-12.9C27.7,7.7,21.9,1.9,14.8,1.9z"/> -->
</g>
</svg>
