<svg xmlns="http://www.w3.org/2000/svg" viewBox="0 0 199.02 199.02"><title>profile-character-2</title><g id="Layer_2" data-name="Layer 2"><circle cx="99.51" cy="99.51" r="99.51" fill="#d6d6d6"/></g><g id="Layer_1" data-name="Layer 1"><path d="M161.21,98.49l-16.67-2.68c-6.8-2.7-8.24-4.64-8.39-11.3a83.13,83.13,0,0,0,27.17.07c5.6-.83,5.6-.68,6.9,5.15a11.28,11.28,0,0,0,1,2.22C170,97.37,165.22,97.35,161.21,98.49Z" transform="translate(-0.48 -0.98)" fill="#f8f8f8"/><path d="M67.73,31.39a108.74,108.74,0,0,0-22.61,7.79c-1.1-4.67.49-7.23,6.23-10,4.57-1.76,9.95-.63,14.09-3.94C69.39,26.09,67.15,29.26,67.73,31.39Z" transform="translate(-0.48 -0.98)" fill="#070908"/><path d="M60.19,18.85l2.42.35a17.74,17.74,0,0,0,2.83,6c-4.14,3.31-9.52,2.18-14.09,3.94C52.15,23.88,56.43,21.59,60.19,18.85Z" transform="translate(-0.48 -0.98)" fill="#6e7872"/><path d="M136.15,84.51c.15,6.66,1.59,8.6,8.39,11.3-3.78,2.84-7.51.32-11.26-.1l0-2.52-2.79-10C132.56,82.78,134.35,83.66,136.15,84.51Z" transform="translate(-0.48 -0.98)" fill="#121516"/><path d="M161.21,98.49c4-1.14,8.79-1.12,10-6.54,3.13,2.83,4.11,8.34,2.24,12.68-.88-2.42-1.86-4.21-5.14-4.3C166,100.26,163.3,100.17,161.21,98.49Z" transform="translate(-0.48 -0.98)" fill="#121516"/><path d="M32.5,66.19a10,10,0,0,0,2.15,1.07C39.5,68.4,38.46,70,35,71.77c-2,.54-3.18-1.76-5.11-1.29C29.77,68.44,31.15,67.33,32.5,66.19Z" transform="translate(-0.48 -0.98)" fill="#76817b"/><path d="M33.75,59.87c2.14.62,5.64,1.94,5.27,3.18-.74,2.49-4.3,1.83-6.6,2.72C32.45,63.72,32.41,61.64,33.75,59.87Z" transform="translate(-0.48 -0.98)" fill="#6a736e"/><path d="M109.87,173.83A27.38,27.38,0,0,1,92.26,169a32.85,32.85,0,0,0-19.4-6.23c-2.63,0-5.25-.89-7.87-1.38-1.66-.3-3.31-.63-3.41-2.13-.1-1.34,1.17-2.08,2.55-2.8,7-3.62,16-3.27,21.35,1.67,4.68,4.3,10.87,6.15,17.73,7.62,7.81,1.67,15.81,2.81,23.82,3.87,1,.13,2.46.11,2.64.84s-1.1,1.12-2.08,1.42C122.51,173.42,117.1,173.74,109.87,173.83Z" transform="translate(-0.48 -0.98)" fill="#121516"/><path d="M101.66,96.84c-.59.29-1.23.55-1.15,1.4-4.38-.17-8.48,1.28-12.66,2.28L88,98.36c4.67-6,4.18-12.85,3.16-19.64-.74-4.88-2.25-9.64-3.42-14.46,4.54,1.95,4.71,7,7.39,10.27.72.86.92,6.15,3.51.79.66-1.37,1.69,0,1.76,1.08a57.49,57.49,0,0,1-.78,12.49c-.31,2-2.3,5.23,2,6C101.59,95.53,101.63,96.19,101.66,96.84Z" transform="translate(-0.48 -0.98)" fill="#121516"/><path d="M52.75,101l3.76.59c.62.34,1.22.29,1.31-.48a1.45,1.45,0,0,0-1.38-1.65L53,95.83l2.36-.37c4.34,2.94,8.52,6.14,13.38,8.25l0,1.77c-3.85.67-7.75,1.17-11.54,2.08-2.56.61-2.49.36-1.64-2,.58-1.59-2.38-1.93-2.91-3.55A1,1,0,0,0,52.75,101Z" transform="translate(-0.48 -0.98)" fill="#1f2424"/><path d="M125.81,105.35c-.2-2.15.22-3.93,2.92-3a36,36,0,0,0,10,2.35c3.07.14,1.12,2.21.84,3.56C134.72,108.61,130.31,106.79,125.81,105.35Z" transform="translate(-0.48 -0.98)" fill="#5e6862"/><path d="M115.12,135.86c-.65,0-1.26-.16-1.47-.8s.34-1.09.82-1.48a17.31,17.31,0,0,1,3.42-2.64c1.48-.65,1.28-4.71,3.55-2.52,1.68,1.63.2,4.39-1.69,5.92A6.88,6.88,0,0,1,115.12,135.86Z" transform="translate(-0.48 -0.98)" fill="#7e8881"/><path d="M41.22,79.29a13.65,13.65,0,0,1,4.51-7.85c1.22,3.82.65,7.74.68,11.62l0,0C44.67,81.79,44.75,78.11,41.22,79.29Z" transform="translate(-0.48 -0.98)" fill="#96999a"/><path d="M68.72,105.48l0-1.77c3.05-.48,5.9-2,9.1-1.69a5.32,5.32,0,0,1,0,1.13A17.07,17.07,0,0,1,68.72,105.48Z" transform="translate(-0.48 -0.98)" fill="#96999a"/><path d="M104.33,103.35l1.19,1.17a7.36,7.36,0,0,1-6.46,3.88,1.48,1.48,0,0,1-.9-.6C99.25,105,102.18,104.72,104.33,103.35Z" transform="translate(-0.48 -0.98)" fill="#858f88"/><path d="M77.81,103.15a5.32,5.32,0,0,0,0-1.13c1.8-1.61,4.08-2,6.34-2.38l0,2.16A10.16,10.16,0,0,1,77.81,103.15Z" transform="translate(-0.48 -0.98)" fill="#7e8881"/><path d="M84.21,101.8l0-2.16L88,98.36l-.12,2.16A5.37,5.37,0,0,1,84.21,101.8Z" transform="translate(-0.48 -0.98)" fill="#57605d"/><path d="M51.12,93.44c-1.59-1.41-2.63-3-2.21-5.29l-.09.06c1.83.82,2.28,2.74,3.36,4.15Z" transform="translate(-0.48 -0.98)" fill="#76817b"/><path d="M48.91,88.15c-2.52-.85-2.67-2.88-2.55-5.06l0,0c2.29,1,2.5,3,2.41,5.15Z" transform="translate(-0.48 -0.98)" fill="#96999a"/><path d="M55.36,95.46,53,95.83a3,3,0,0,1-1.88-2.39l1.06-1.08C53.28,93.35,54.84,93.87,55.36,95.46Z" transform="translate(-0.48 -0.98)" fill="#76817b"/><path d="M56.44,99.47a1.45,1.45,0,0,1,1.38,1.65c-.09.77-.69.82-1.31.48Z" transform="translate(-0.48 -0.98)" fill="#96999a"/><path d="M96.16,109.22l-.38-.33c.14-.1.28-.28.41-.28s.26.2.38.31Z" transform="translate(-0.48 -0.98)" fill="#858f88"/><path d="M52.75,101a1,1,0,0,1-.12,1c-.55-.08-1.09-.22-.83-.94C51.85,101,52.42,101,52.75,101Z" transform="translate(-0.48 -0.98)" fill="#5e6862"/><path d="M55.36,95.46c-.52-1.59-2.08-2.11-3.18-3.1C51.1,91,50.65,89,48.82,88.21c.09-2.13-.12-4.13-2.41-5.15,0-3.88.54-7.8-.68-11.62,1.28-4.25,1-9,4.1-11.57,5-4,14.37-4.84,20.23-7.48,5-.08,8.69,2.51,12.22,5.6,1.39,1.21,2.06,3.21,4.09,3.69.37,1,.17,2.25,1.51,2.66l-.17-.08c1.17,4.82,2.68,9.58,3.42,14.46,1,6.79,1.51,13.68-3.16,19.64l-3.79,1.28c-2.26.42-4.54.77-6.34,2.38-3.2-.34-6,1.21-9.1,1.69C63.88,101.6,59.7,98.4,55.36,95.46ZM77.91,76.81c-.09-1.16-.09-2-.23-2.83-.28-1.65-.37-4-1.78-4.5-2.11-.81-2.38,1.79-3.21,3.07-1.81,2.82-3.64,3.19-5.8.42-1.16-1.48-2.5-2.84-3-4.72-.22-.77-.3-1.8-1.37-1.72s-1.09,1.19-1.1,2c-.1,4-.25,8,.86,11.86,1.83,6.48,2.69,6.83,8.16,3.23a23.68,23.68,0,0,1,4.86-2.85C77.47,79.94,78.29,78.69,77.91,76.81Z" transform="translate(-0.48 -0.98)" fill="#f8f8f8"/><path d="M133.26,93.19l0,2.52c-.61,0-1.23.09-1.84.07-2.85-.06-7.76-1.32-7.35-2.42,1.22-3.29,4.33.14,6.71-.15A20.18,20.18,0,0,1,133.26,93.19Z" transform="translate(-0.48 -0.98)" fill="#404847"/><path d="M101.66,96.84c0-.65-.07-1.31-.1-2a6.1,6.1,0,0,1,5.13-1.6c.74.15.74.87.36,1.4A5,5,0,0,1,101.66,96.84Z" transform="translate(-0.48 -0.98)" fill="#404847"/><path d="M87.88,64.34c-1.34-.41-1.14-1.69-1.51-2.66A2.79,2.79,0,0,1,87.88,64.34Z" transform="translate(-0.48 -0.98)" fill="#121516"/><path d="M77.91,76.81c.38,1.88-.44,3.13-2.65,3.91a23.68,23.68,0,0,0-4.86,2.85c-5.47,3.6-6.33,3.25-8.16-3.23-1.11-3.9-1-7.88-.86-11.86,0-.76,0-1.86,1.1-2s1.15,1,1.37,1.72c.54,1.88,1.88,3.24,3,4.72,2.16,2.77,4,2.4,5.8-.42.83-1.28,1.1-3.88,3.21-3.07,1.41.54,1.5,2.85,1.78,4.5C77.82,74.8,77.82,75.65,77.91,76.81Z" transform="translate(-0.48 -0.98)" fill="#313737"/><path d="M58.76,43.12C60,45,60.75,47.4,63,48.43c1.23.55,3.1,1.93,3.86.16,1.84-4.3,3.45-1.73,4.54.1C74,53,78.69,54.08,82.51,56.52,84.83,58,88.82,59,86.2,63.36a72.17,72.17,0,0,0-18.68-4c-4-.3-8.21-1.21-12.07,1a13.61,13.61,0,0,0-8.68,2.57l-.54.27c-.18.09-.45.32-.53.27-1.11-.72-.08-1.43.2-1.9,1.31-2.16,2.73-3.94-.94-5.54-1.9-.82-1.64-1.41,2.51-2.81,3.73,1.06,5.57.64,2.84-3.53a10.29,10.29,0,0,1-.82-2.26l.23-.35C52,48,54.12,51,56.38,49.66c1.12-.64-.5-4-1.63-5.93C55.92,42.44,57.14,41.42,58.76,43.12Z" transform="translate(-0.48 -0.98)" fill="#121516"/></g><g id="Layer_5" data-name="Layer 5"><path d="M199,90.11V1H57.16v9.65S94.43,116.72,199,90.11Z" transform="translate(-0.48 -0.98)" fill="#2e2e2e"/></g></svg>